<?xml version="1.0" encoding="utf-8"?>
<!-- Generator: Adobe Illustrator 27.0.0, SVG Export Plug-In . SVG Version: 6.00 Build 0)  -->
<svg version="1.1" id="Layer_1" xmlns="http://www.w3.org/2000/svg" xmlns:xlink="http://www.w3.org/1999/xlink" x="0px" y="0px"
	 viewBox="0 0 237 438" style="enable-background:new 0 0 237 438;" xml:space="preserve">
<style type="text/css">
	.st0{fill:#02050A;}
</style>
<path class="st0" d="M47.9,403.4c-0.1,0.5,0.2,1.1,0.7,1.2l8.8,2.1c0.5,0.1,1.1-0.2,1.2-0.7c0.1-0.5-0.2-1.1-0.7-1.2l-7.8-1.9
	l1.9-7.8c0.1-0.5-0.2-1.1-0.7-1.2c-0.5-0.1-1.1,0.2-1.2,0.7L47.9,403.4z M116.5,360.9l-68.1,41.9l1,1.7l68.1-41.9L116.5,360.9z"/>
<g>
	<path d="M61.8,18.6c3.2-5.5,9.7-6.9,15.3-3.6c3.1,1.8,5.1,4.5,5.6,7.6l-4.1,0.9c-0.4-2.1-1.5-3.7-3.3-4.8c-3.4-2-7.2-1-9.2,2.4
		s-1,7.2,2.4,9.2c1.8,1.1,3.8,1.2,5.8,0.5l1.2,4.1c-2.9,1.1-6.2,0.7-9.4-1.2C60.5,30.5,58.6,24.1,61.8,18.6z"/>
	<path d="M93.4,32.3l-2.6,3.5c-0.3-0.3-0.5-0.5-0.8-0.7c-2.1-1.5-4.3-1.4-6.1,1.1l-4.5,6.1l-3.8-2.8l9.6-13l3.6,2.7l-1.3,1.7
		C89.4,30.3,91.4,30.8,93.4,32.3z"/>
	<path d="M101.7,52.2l-9.1-8.1c-1,1.8-0.5,3.9,1.3,5.5c1.3,1.1,2.5,1.6,4.1,1.5l0.1,3.7c-2.3,0.3-4.5-0.6-6.7-2.5
		c-4.2-3.7-4.5-8.8-1.3-12.3c3.2-3.6,8.3-3.7,12-0.5c3.5,3.2,4.1,8,0.7,11.8C102.3,51.6,101.9,51.9,101.7,52.2z M94.3,42l5.9,5.3
		c1.1-1.7,0.9-3.7-0.7-5.1C97.9,40.7,95.9,40.7,94.3,42z"/>
	<path d="M115.2,63.2l-6.8,6.2l-3-3.2l1.5-1.4c-1.7,0.4-3.4-0.4-5-2.1c-2.6-2.8-2.5-5.9-0.5-7.7c2.1-1.9,4.9-1.8,8.2,1.8l2.5,2.7
		c1.5-1.4,1.5-3-0.2-4.9c-1.2-1.3-2.8-2.2-4.2-2.4l1.3-3.4c2.1,0.5,4.4,1.9,6.1,3.8C118.5,56.2,118.8,59.8,115.2,63.2z M109,62.5
		l1.2-1.1L108,59c-1.5-1.6-2.5-1.6-3.3-0.8c-0.9,0.8-0.8,2,0.3,3.3C106.1,62.6,107.5,63.1,109,62.5z"/>
	<path d="M117.8,80.1c-1.1-0.3-2.3-1.2-3.1-2.4c-2.3-3-2.2-6,0.9-8.3l5.2-4.1l-1.5-2l2.8-2.2l1.5,2l3.1-2.4l2.9,3.7l-3.1,2.4
		l2.5,3.2l-2.8,2.2l-2.5-3.2l-5.2,4c-1.1,0.8-1.2,1.9-0.4,2.9c0.4,0.5,1,1,1.6,1.1L117.8,80.1z"/>
	<path d="M131.7,73.3l2.7,3.8l-13.2,9.2l-2.7-3.8L131.7,73.3z M135.4,70.1c1.2-0.8,2.8-0.5,3.8,0.9c1,1.4,0.8,3-0.4,3.8
		c-1.3,0.9-2.9,0.6-3.9-0.8C133.9,72.5,134.2,70.9,135.4,70.1z"/>
	<path d="M145.6,95l-17.3,2.6l-2.5-4.1l10.3-14.2l2.5,4.1l-7.1,9.5l11.8-1.8L145.6,95z"/>
	<path d="M145.4,115.4l-5.5-10.9c-1.6,1.3-1.9,3.4-0.8,5.6c0.8,1.5,1.8,2.4,3.2,2.9l-1.3,3.4c-2.2-0.6-4-2.2-5.3-4.8
		c-2.5-5-1-9.8,3.3-12c4.3-2.2,9.1-0.4,11.3,3.9c2.1,4.2,0.9,8.9-3.7,11.3C146.2,115.1,145.8,115.2,145.4,115.4z M142.3,103.2
		l3.6,7.1c1.7-1.2,2.2-3.2,1.2-5C146.1,103.3,144.3,102.6,142.3,103.2z"/>
	<path d="M163.7,121.9l3.2,9c2.3,6.5,0,12.3-6,14.4c-6,2.1-11.5-0.9-13.8-7.4l-3.2-9L163.7,121.9z M150.8,136.3
		c1.4,3.9,4.6,5.7,8.4,4.3s5.2-4.7,3.8-8.7l-1.5-4.2l-12.3,4.3L150.8,136.3z"/>
	<path d="M167.1,147.4l1.3,4.5l-15.5,4.3l-1.3-4.5L167.1,147.4z M171.6,145.6c1.4-0.4,2.8,0.4,3.3,2.1c0.5,1.7-0.3,3.1-1.6,3.5
		c-1.5,0.4-2.9-0.4-3.4-2.1C169.4,147.4,170.2,146,171.6,145.6z"/>
	<path d="M173.3,173l-13.1,2.9c-5.9,1.3-9.2-1.3-10.5-7c-0.6-3-0.5-6.1,0.5-8.2l3.7,1.1c-0.8,1.6-1,3.9-0.6,6
		c0.7,3.2,2.5,4.3,5.3,3.7l0.7-0.1c-1.6-0.9-2.6-2.5-3-4.6c-0.9-4.4,1.3-8.5,5.9-9.5s8.4,1.9,9.3,6.2c0.5,2.2,0.1,4.2-1.1,5.7l2-0.4
		L173.3,173z M164.9,170.1c2.3-0.5,3.5-2.6,3-5c-0.5-2.4-2.5-3.8-4.8-3.3c-2.3,0.5-3.5,2.6-3,5C160.6,169.2,162.6,170.6,164.9,170.1
		z"/>
	<path d="M174,177.9l0.7,4.6l-15.9,2.5l-0.7-4.6L174,177.9z M178.7,176.6c1.5-0.2,2.8,0.7,3,2.5s-0.6,3-2,3.3
		c-1.5,0.2-2.8-0.7-3.1-2.5S177.3,176.8,178.7,176.6z"/>
	<path d="M161.4,199.4c-0.8-0.9-1.3-2.2-1.5-3.7c-0.4-3.8,1.2-6.2,5.1-6.7l6.6-0.8l-0.3-2.5l3.6-0.4l0.3,2.5l3.9-0.5l0.5,4.6
		l-3.9,0.5l0.5,4l-3.6,0.4l-0.5-4l-6.5,0.8c-1.4,0.2-2,1-1.9,2.2c0.1,0.7,0.4,1.3,0.8,1.8L161.4,199.4z"/>
	<path d="M170.9,215.6l-9.2,0.5l-0.3-4.4l2-0.1c-1.5-0.8-2.4-2.4-2.5-4.8c-0.2-3.8,1.7-6.1,4.5-6.3c2.8-0.2,4.9,1.7,5.2,6.6l0.2,3.7
		c2-0.1,3.1-1.4,3-3.9c-0.1-1.7-0.8-3.4-1.8-4.6l3.2-1.9c1.4,1.7,2.2,4.3,2.4,6.8C177.9,212.3,175.8,215.3,170.9,215.6z
		 M166.5,211.2l1.6-0.1l-0.2-3.2c-0.1-2.2-1-2.8-2.1-2.8c-1.2,0.1-1.9,1.1-1.8,2.7C164.2,209.4,165,210.7,166.5,211.2z"/>
	<path d="M183.9,219.8l0.1,4.7l-22.3,0.3l-0.1-4.7L183.9,219.8z"/>
	<path d="M164.9,251.7l0.8-9.7l-4.3-2.2l0.4-5l20.2,11l-0.4,4.8l-21.7,7.7l0.4-5.1L164.9,251.7z M168.7,250.4l8.3-2.7l-7.7-4
		L168.7,250.4z"/>
	<path d="M172.8,278.6l-13.3-2.2c-5.9-1-8.1-4.6-7.2-10.4c0.5-3,1.7-5.8,3.5-7.5l3,2.4c-1.3,1.2-2.4,3.3-2.7,5.3
		c-0.5,3.3,0.7,4.9,3.6,5.4l0.7,0.1c-1.1-1.4-1.5-3.3-1.2-5.4c0.7-4.4,4.4-7.5,9-6.7c4.6,0.8,7.1,4.8,6.4,9.2
		c-0.4,2.2-1.4,3.9-3.1,4.9l2,0.3L172.8,278.6z M166.1,272.8c2.3,0.4,4.2-1.1,4.6-3.5c0.4-2.4-0.9-4.5-3.2-4.8
		c-2.3-0.4-4.2,1.1-4.6,3.6C162.5,270.4,163.8,272.4,166.1,272.8z"/>
	<path d="M158.9,296.7l2.9-11.9c-2.1,0-3.7,1.3-4.2,3.7c-0.4,1.7-0.2,3,0.6,4.3l-3.2,1.8c-1.3-1.9-1.7-4.3-1-7.1
		c1.3-5.4,5.6-8.1,10.2-7c4.7,1.1,7.2,5.5,6,10.3c-1.1,4.6-5.1,7.4-10.1,6.2C159.8,297,159.3,296.8,158.9,296.7z M164.5,285.4
		l-1.9,7.7c2.1,0.2,3.7-1,4.2-3.1C167.3,288,166.4,286.2,164.5,285.4z"/>
	<path d="M155.3,316.4l-8.8-2.9l1.5-4.4l8.1,2.6c2.5,0.8,4,0,4.6-1.9c0.7-2.1-0.1-4.1-2.9-5l-7.6-2.5l1.5-4.4l15.3,5l-1.4,4.2
		l-1.8-0.6c0.9,1.6,1,3.7,0.4,5.7C162.9,315.9,159.9,317.9,155.3,316.4z"/>
	<path d="M152.9,319.3c4.5,1.9,6.2,6.7,4.2,11.5c-1.3,3.1-3.7,5-6.6,5.1l-0.4-4.1c1.7-0.2,2.9-1.1,3.4-2.5c0.9-2.2,0.1-4.5-2.5-5.6
		c-2.6-1.1-4.8,0-5.8,2.2c-0.6,1.4-0.5,2.8,0.7,4.2l-3.2,2.6c-1.9-2.1-2.3-5.1-1-8.2C143.8,319.5,148.5,317.4,152.9,319.3z"/>
	<path d="M145.5,354.6l-12-14.3c-2.8-3.2-2.8-5.7-1.5-8.3c0.7-1.5,2-2.8,3.3-3.3l2.2,3c-0.9,0.4-1.7,1.1-2.1,1.9
		c-0.6,1.2-0.4,2,0.6,3.3l0.1,0.1l17.7,1.1l-2.2,4.3l-11.8-0.9l7.7,9L145.5,354.6z"/>
</g>
</svg>
