<?xml version="1.0" encoding="utf-8"?>
<!-- Generator: Adobe Illustrator 27.0.0, SVG Export Plug-In . SVG Version: 6.00 Build 0)  -->
<svg version="1.1" id="Layer_1" xmlns="http://www.w3.org/2000/svg" xmlns:xlink="http://www.w3.org/1999/xlink" x="0px" y="0px"
	 viewBox="0 0 165 165" style="enable-background:new 0 0 165 165;" xml:space="preserve">
<style type="text/css">
	.st0{fill:#FFFFFF;stroke:#4E4CFF;stroke-width:0.7857;}
	.st1{font-family:'ArialMT';}
	.st2{font-size:12px;}
	.st3{font-family:'NexaBold';}
	.st4{font-size:11.5856px;}
	.st5{fill:url(#SVGID_1_);}
	.st6{fill:url(#SVGID_00000155119397565143325170000004259530080775903916_);}
	.st7{fill:url(#SVGID_00000062171907183013324430000014790439879605711243_);}
	.st8{fill:url(#SVGID_00000067206098593999140540000015863824790396089488_);}
	.st9{fill:url(#SVGID_00000072257866713465570780000003971032399360821663_);}
	.st10{fill:url(#SVGID_00000016753533104004457070000002122201938936536205_);}
	.st11{fill:url(#SVGID_00000010291396624756281700000014001112971209331851_);}
	.st12{fill:url(#SVGID_00000031192027771207002120000009642969125074314129_);}
	.st13{fill:url(#SVGID_00000061437909568726740210000009041381825478486419_);}
	.st14{fill:url(#SVGID_00000116947731089872649220000017697141817044990082_);}
	.st15{fill:#FFFFFF;}
	.st16{fill:url(#SVGID_00000002360283513319032160000005954378873638901938_);}
	.st17{fill:url(#SVGID_00000137104639666845449620000009013282514921188799_);}
	.st18{fill:url(#SVGID_00000084504967443000611760000005409876199687547792_);}
	.st19{fill:url(#SVGID_00000161614710654298284810000005104948831286220713_);}
</style>
<circle class="st0" cx="82.5" cy="82.5" r="82.1"/>
<text class="st1 st2"> </text>
<g>
	<text transform="matrix(1 0 0 1 44.5646 98.4626)" class="st3 st4">SPREADIGIT</text>
	<g>
		<linearGradient id="SVGID_1_" gradientUnits="userSpaceOnUse" x1="44.6685" y1="94.3745" x2="113.0674" y2="94.3745">
			<stop  offset="0" style="stop-color:#4E4CFF"/>
			<stop  offset="1" style="stop-color:#000000"/>
		</linearGradient>
		<path class="st5" d="M50.1,92.3c-0.3-0.5-1-0.9-1.9-0.9c-1.1,0-1.7,0.5-1.7,1.1c0,0.7,0.8,0.9,1.8,1c1.7,0.2,3.3,0.6,3.3,2.6
			c0,1.8-1.6,2.6-3.4,2.6c-1.7,0-2.9-0.5-3.5-2l1.3-0.7c0.4,0.9,1.3,1.3,2.3,1.3c1,0,1.9-0.3,1.9-1.2c0-0.8-0.8-1.1-1.9-1.2
			c-1.7-0.2-3.2-0.6-3.2-2.5c0-1.7,1.6-2.4,3.1-2.4c1.3,0,2.6,0.4,3.2,1.6L50.1,92.3z"/>
		
			<linearGradient id="SVGID_00000032643705871666051980000006959156133804793525_" gradientUnits="userSpaceOnUse" x1="44.6685" y1="94.3745" x2="113.0674" y2="94.3745">
			<stop  offset="0" style="stop-color:#4E4CFF"/>
			<stop  offset="1" style="stop-color:#000000"/>
		</linearGradient>
		<path style="fill:url(#SVGID_00000032643705871666051980000006959156133804793525_);" d="M56.6,96.1h-2.3v2.4h-1.5v-8.1
			c1.3,0,2.5,0,3.8,0C60.6,90.3,60.6,96.1,56.6,96.1z M54.3,94.7h2.3c2,0,1.9-2.9,0-2.9h-2.3V94.7z"/>
		
			<linearGradient id="SVGID_00000044874478569992153910000005282089568757863303_" gradientUnits="userSpaceOnUse" x1="44.6685" y1="94.3745" x2="113.0674" y2="94.3745">
			<stop  offset="0" style="stop-color:#4E4CFF"/>
			<stop  offset="1" style="stop-color:#000000"/>
		</linearGradient>
		<path style="fill:url(#SVGID_00000044874478569992153910000005282089568757863303_);" d="M67.8,98.5H66l-2.4-2.7h-1.5v2.7h-1.5
			v-8.1c1.3,0,2.6,0,3.9,0c1.9,0,2.9,1.3,2.9,2.7c0,1.1-0.5,2.2-2,2.5l2.5,2.8V98.5z M62.2,91.8v2.6h2.3c1,0,1.4-0.6,1.4-1.3
			c0-0.6-0.4-1.3-1.4-1.3H62.2z"/>
		
			<linearGradient id="SVGID_00000003803390074385104410000011734436702265006746_" gradientUnits="userSpaceOnUse" x1="44.6685" y1="94.3745" x2="113.0674" y2="94.3745">
			<stop  offset="0" style="stop-color:#4E4CFF"/>
			<stop  offset="1" style="stop-color:#000000"/>
		</linearGradient>
		<path style="fill:url(#SVGID_00000003803390074385104410000011734436702265006746_);" d="M74.5,98.5h-6.1c0-2.7,0-5.4,0-8.1h6.1
			v1.5h-4.6v1.9h4.4v1.4h-4.4V97h4.6V98.5z"/>
		
			<linearGradient id="SVGID_00000149362661985654381100000000301259260074616195_" gradientUnits="userSpaceOnUse" x1="44.6685" y1="94.3745" x2="113.0674" y2="94.3745">
			<stop  offset="0" style="stop-color:#4E4CFF"/>
			<stop  offset="1" style="stop-color:#000000"/>
		</linearGradient>
		<path style="fill:url(#SVGID_00000149362661985654381100000000301259260074616195_);" d="M81.4,96.9h-4.2l-0.7,1.5h-1.7l3.6-8.1
			h1.7l3.6,8.1h-1.7L81.4,96.9z M79.3,92.1l-1.5,3.5h3L79.3,92.1z"/>
		
			<linearGradient id="SVGID_00000025437608388732897550000013762933746147160762_" gradientUnits="userSpaceOnUse" x1="44.6685" y1="94.3745" x2="113.0674" y2="94.3745">
			<stop  offset="0" style="stop-color:#4E4CFF"/>
			<stop  offset="1" style="stop-color:#000000"/>
		</linearGradient>
		<path style="fill:url(#SVGID_00000025437608388732897550000013762933746147160762_);" d="M91.5,94.3c0,2-1.2,4.1-4.1,4.1
			c-1,0-2.2,0-3.2,0v-8.1c1,0,2.2,0,3.2,0C90.2,90.4,91.4,92.3,91.5,94.3z M85.8,97h1.7c1.8,0,2.6-1.3,2.5-2.7
			c0-1.3-0.8-2.5-2.5-2.5h-1.7V97z"/>
		
			<linearGradient id="SVGID_00000111169714020217408170000001466641661964147639_" gradientUnits="userSpaceOnUse" x1="44.6685" y1="94.3745" x2="113.0674" y2="94.3745">
			<stop  offset="0" style="stop-color:#4E4CFF"/>
			<stop  offset="1" style="stop-color:#000000"/>
		</linearGradient>
		<path style="fill:url(#SVGID_00000111169714020217408170000001466641661964147639_);" d="M92.5,98.5v-8.1H94v8.1H92.5z"/>
		
			<linearGradient id="SVGID_00000005268899910397591000000009874874070735132834_" gradientUnits="userSpaceOnUse" x1="44.6685" y1="94.3745" x2="113.0674" y2="94.3745">
			<stop  offset="0" style="stop-color:#4E4CFF"/>
			<stop  offset="1" style="stop-color:#000000"/>
		</linearGradient>
		<path style="fill:url(#SVGID_00000005268899910397591000000009874874070735132834_);" d="M101.5,92.3c-0.5-0.5-1.4-0.8-2.1-0.8
			c-1.7,0-2.8,1.3-2.8,3c0,1.3,0.8,2.7,2.8,2.7c0.6,0,1.2-0.1,1.8-0.6v-1.4h-2.1v-1.4h3.5v3.4c-0.8,0.9-1.8,1.5-3.2,1.5
			c-3,0-4.3-2-4.3-4.1c0-2.3,1.4-4.4,4.3-4.4c1.1,0,2.2,0.4,3,1.2L101.5,92.3z"/>
		
			<linearGradient id="SVGID_00000170269419446554466510000011750717109207671702_" gradientUnits="userSpaceOnUse" x1="44.6685" y1="94.3745" x2="113.0674" y2="94.3745">
			<stop  offset="0" style="stop-color:#4E4CFF"/>
			<stop  offset="1" style="stop-color:#000000"/>
		</linearGradient>
		<path style="fill:url(#SVGID_00000170269419446554466510000011750717109207671702_);" d="M103.9,98.5v-8.1h1.5v8.1H103.9z"/>
		
			<linearGradient id="SVGID_00000076605179487043200800000001432970555361403066_" gradientUnits="userSpaceOnUse" x1="44.6685" y1="94.3745" x2="113.0674" y2="94.3745">
			<stop  offset="0" style="stop-color:#4E4CFF"/>
			<stop  offset="1" style="stop-color:#000000"/>
		</linearGradient>
		<path style="fill:url(#SVGID_00000076605179487043200800000001432970555361403066_);" d="M109,91.7h-2.6v-1.4c2.3,0,4.3,0,6.7,0
			v1.4h-2.6v6.7H109V91.7z"/>
	</g>
</g>
<g>
	<g>
		<g>
			<path class="st15" d="M82.1,76.9H70.3v-3.6h17.1C86.6,75.4,84.5,76.9,82.1,76.9z"/>
			<path class="st15" d="M95.4,71.2c0,2.7-0.8,5.3-2.2,7.4c-0.9,1.4-2.2,2.6-3.6,3.6c-2.1,1.5-4.7,2.3-7.5,2.3H70.3v-3.5h11.8
				c3,0,5.7-1.4,7.5-3.5c1.4-1.7,2.3-3.9,2.3-6.2v0c0-2.4-0.8-4.5-2.3-6.2c-1.6-2-4-3.3-6.7-3.5v-3.6c2.5,0.1,4.8,1,6.7,2.3
				c1.4,1,2.6,2.2,3.6,3.6C94.6,65.9,95.4,68.4,95.4,71.2z"/>
			<path class="st15" d="M78.7,57.7v3.6H63.1c0.8-2.1,2.9-3.6,5.3-3.6H78.7z"/>
			<path class="st15" d="M86.1,67.2c-1-1-2.4-1.7-4-1.7h-19c0.3,0.7,0.7,1.4,1.3,1.9c1,1,2.4,1.7,4,1.7h19
				C87.1,68.4,86.7,67.7,86.1,67.2z"/>
		</g>
	</g>
	<g>
		<g>
			
				<linearGradient id="SVGID_00000039838276031000855610000006497278692665729971_" gradientUnits="userSpaceOnUse" x1="63.1498" y1="71.0957" x2="95.4419" y2="71.0957">
				<stop  offset="0" style="stop-color:#4E4CFF"/>
				<stop  offset="0.3077" style="stop-color:#3332A8"/>
				<stop  offset="0.6467" style="stop-color:#18174E"/>
				<stop  offset="0.8854" style="stop-color:#070716"/>
				<stop  offset="1" style="stop-color:#000000"/>
			</linearGradient>
			<path style="fill:url(#SVGID_00000039838276031000855610000006497278692665729971_);" d="M82.1,76.9H70.3v-3.6h17.1
				C86.6,75.4,84.5,76.9,82.1,76.9z"/>
			
				<linearGradient id="SVGID_00000072269902916319398970000006967388597300804784_" gradientUnits="userSpaceOnUse" x1="63.1498" y1="71.0957" x2="95.4419" y2="71.0957">
				<stop  offset="0" style="stop-color:#4E4CFF"/>
				<stop  offset="0.3077" style="stop-color:#3332A8"/>
				<stop  offset="0.6467" style="stop-color:#18174E"/>
				<stop  offset="0.8854" style="stop-color:#070716"/>
				<stop  offset="1" style="stop-color:#000000"/>
			</linearGradient>
			<path style="fill:url(#SVGID_00000072269902916319398970000006967388597300804784_);" d="M95.4,71.2c0,2.7-0.8,5.3-2.2,7.4
				c-0.9,1.4-2.2,2.6-3.6,3.6c-2.1,1.5-4.7,2.3-7.5,2.3H70.3v-3.5h11.8c3,0,5.7-1.4,7.5-3.5c1.4-1.7,2.3-3.9,2.3-6.2v0
				c0-2.4-0.8-4.5-2.3-6.2c-1.6-2-4-3.3-6.7-3.5v-3.6c2.5,0.1,4.8,1,6.7,2.3c1.4,1,2.6,2.2,3.6,3.6C94.6,65.9,95.4,68.4,95.4,71.2z"
				/>
			
				<linearGradient id="SVGID_00000067919098346712612450000011201321858614070450_" gradientUnits="userSpaceOnUse" x1="63.1498" y1="71.0957" x2="95.4419" y2="71.0957">
				<stop  offset="0" style="stop-color:#4E4CFF"/>
				<stop  offset="0.3077" style="stop-color:#3332A8"/>
				<stop  offset="0.6467" style="stop-color:#18174E"/>
				<stop  offset="0.8854" style="stop-color:#070716"/>
				<stop  offset="1" style="stop-color:#000000"/>
			</linearGradient>
			<path style="fill:url(#SVGID_00000067919098346712612450000011201321858614070450_);" d="M78.7,57.7v3.6H63.1
				c0.8-2.1,2.9-3.6,5.3-3.6H78.7z"/>
			
				<linearGradient id="SVGID_00000048472491902422156110000005585016524438259073_" gradientUnits="userSpaceOnUse" x1="63.1498" y1="71.0957" x2="95.4419" y2="71.0957">
				<stop  offset="0" style="stop-color:#4E4CFF"/>
				<stop  offset="0.3077" style="stop-color:#3332A8"/>
				<stop  offset="0.6467" style="stop-color:#18174E"/>
				<stop  offset="0.8854" style="stop-color:#070716"/>
				<stop  offset="1" style="stop-color:#000000"/>
			</linearGradient>
			<path style="fill:url(#SVGID_00000048472491902422156110000005585016524438259073_);" d="M86.1,67.2c-1-1-2.4-1.7-4-1.7h-19
				c0.3,0.7,0.7,1.4,1.3,1.9c1,1,2.4,1.7,4,1.7h19C87.1,68.4,86.7,67.7,86.1,67.2z"/>
		</g>
	</g>
</g>
<g>
	<path d="M17.5,103.3c0,0.7-0.4,1.3-1.3,1.3c-0.3,0-0.7,0-1,0v-2.6c0.3,0,0.7,0,1,0C17.1,102.1,17.5,102.7,17.5,103.3z M15.7,104.2
		h0.5c0.6,0,0.8-0.4,0.8-0.8c0-0.4-0.2-0.8-0.8-0.8h-0.5V104.2z"/>
	<path d="M20.5,104.6v-2.6h0.5v2.6H20.5z"/>
	<path d="M25.9,102.7c-0.2-0.2-0.4-0.3-0.7-0.3c-0.6,0-0.9,0.4-0.9,0.9c0,0.4,0.2,0.9,0.9,0.9c0.2,0,0.4,0,0.6-0.2v-0.5h-0.7v-0.4
		h1.1v1.1c-0.3,0.3-0.6,0.5-1,0.5c-1,0-1.4-0.6-1.4-1.3c0-0.7,0.5-1.4,1.4-1.4c0.3,0,0.7,0.1,1,0.4L25.9,102.7z"/>
	<path d="M29.2,104.6v-2.6h0.5v2.6H29.2z"/>
	<path d="M33.5,102.5h-0.8v-0.4c0.7,0,1.4,0,2.1,0v0.4H34v2.1h-0.5V102.5z"/>
	<path d="M39.5,104.1h-1.3l-0.2,0.5h-0.5l1.2-2.6h0.5l1.2,2.6h-0.5L39.5,104.1z M38.9,102.6l-0.5,1.1h1L38.9,102.6z"/>
	<path d="M43.6,102.1v2.1h1.3v0.4h-1.8v-2.6H43.6z"/>
	<path d="M48.3,102.1v2.1h1.3v0.4h-1.8v-2.6H48.3z"/>
	<path d="M53.2,103.1l0.7-1.1h0.6v0l-1,1.5v1.1H53v-1.1l-1-1.5v0h0.6L53.2,103.1z"/>
	<path d="M62.5,104.6h-1.9c0-0.9,0-1.7,0-2.6h1.9v0.5H61v0.6h1.4v0.5H61v0.6h1.4V104.6z"/>
	<path d="M67.7,102.8l-0.8,1.1h-0.1l-0.8-1.1v1.9h-0.5v-2.6H66l0.8,1.1l0.8-1.1h0.6v2.6h-0.5V102.8z"/>
	<path d="M72.4,103.9h-0.7v0.8h-0.5v-2.6c0.4,0,0.8,0,1.2,0C73.7,102,73.7,103.9,72.4,103.9z M71.7,103.4h0.7c0.6,0,0.6-0.9,0-0.9
		h-0.7V103.4z"/>
	<path d="M78.8,103.4c0,0.7-0.4,1.3-1.3,1.3c-0.9,0-1.3-0.7-1.3-1.3s0.4-1.4,1.3-1.4C78.4,102,78.8,102.7,78.8,103.4z M76.6,103.4
		c0,0.4,0.2,0.9,0.8,0.9c0.6,0,0.8-0.5,0.8-0.9c0-0.4-0.2-0.9-0.8-0.9C76.9,102.4,76.6,102.9,76.6,103.4z"/>
	<path d="M84.4,104.6H84l-0.3-0.8l-0.3-0.8l-0.3,0.8l-0.3,0.8h-0.4l-0.9-2.6H82l0.6,1.9l0.6-1.9h0.3l0.6,1.9l0.6-1.9h0.5L84.4,104.6
		z"/>
	<path d="M90.1,104.6h-1.9c0-0.9,0-1.7,0-2.6h1.9v0.5h-1.4v0.6h1.4v0.5h-1.4v0.6h1.4V104.6z"/>
	<path d="M95.4,104.6h-0.6l-0.8-0.9h-0.5v0.9h-0.5V102c0.4,0,0.8,0,1.2,0c0.6,0,0.9,0.4,0.9,0.9c0,0.4-0.2,0.7-0.7,0.8L95.4,104.6
		L95.4,104.6z M93.6,102.5v0.8h0.7c0.3,0,0.4-0.2,0.4-0.4s-0.1-0.4-0.4-0.4H93.6z"/>
	<path d="M98.1,104.6v-2.6h0.5v2.6H98.1z"/>
	<path d="M103.3,102h0.5v2.6h-0.3v0l-1.4-1.7v1.7h-0.5v-2.6h0.4l1.3,1.6V102z"/>
	<path d="M108.8,102.7c-0.2-0.2-0.4-0.3-0.7-0.3c-0.6,0-0.9,0.4-0.9,0.9c0,0.4,0.2,0.9,0.9,0.9c0.2,0,0.4,0,0.6-0.2v-0.5H108v-0.4
		h1.1v1.1c-0.3,0.3-0.6,0.5-1,0.5c-1,0-1.4-0.6-1.4-1.3c0-0.7,0.5-1.4,1.4-1.4c0.3,0,0.7,0.1,1,0.4L108.8,102.7z"/>
	<path d="M117.5,102.8c0,0.2-0.1,0.4-0.3,0.5c0.3,0.1,0.4,0.4,0.4,0.6c0,0.6-0.4,0.8-1,0.8c-0.4,0-0.8,0-1.2,0v-2.6
		c0.4,0,0.8,0,1.2,0C117.1,102.1,117.5,102.3,117.5,102.8z M115.9,103.1h0.7c0.3,0,0.4-0.1,0.4-0.3c0-0.1-0.1-0.3-0.4-0.3h-0.7
		V103.1z M115.9,104.2h0.7c0.2,0,0.5-0.1,0.5-0.3c0-0.2-0.3-0.4-0.5-0.4h-0.7V104.2z"/>
	<path d="M122.8,104.6h-0.6l-0.8-0.9H121v0.9h-0.5V102c0.4,0,0.8,0,1.2,0c0.6,0,0.9,0.4,0.9,0.9c0,0.4-0.2,0.7-0.7,0.8L122.8,104.6
		L122.8,104.6z M121,102.5v0.8h0.7c0.3,0,0.4-0.2,0.4-0.4s-0.1-0.4-0.4-0.4H121z"/>
	<path d="M127.4,104.1h-1.3l-0.2,0.5h-0.5l1.2-2.6h0.5l1.2,2.6h-0.5L127.4,104.1z M126.7,102.6l-0.5,1.1h1L126.7,102.6z"/>
	<path d="M132.6,102h0.5v2.6h-0.3v0l-1.4-1.7v1.7H131v-2.6h0.4l1.3,1.6V102z"/>
	<path d="M138.4,103.3c0,0.7-0.4,1.3-1.3,1.3c-0.3,0-0.7,0-1,0v-2.6c0.3,0,0.7,0,1,0C138,102.1,138.4,102.7,138.4,103.3z
		 M136.6,104.2h0.5c0.6,0,0.8-0.4,0.8-0.8c0-0.4-0.2-0.8-0.8-0.8h-0.5V104.2z"/>
	<path d="M142.9,102.7c-0.1-0.1-0.3-0.3-0.6-0.3c-0.4,0-0.5,0.2-0.5,0.3c0,0.2,0.3,0.3,0.6,0.3c0.5,0.1,1,0.2,1,0.8
		c0,0.6-0.5,0.8-1.1,0.8c-0.5,0-0.9-0.2-1.1-0.6l0.4-0.2c0.1,0.3,0.4,0.4,0.7,0.4c0.3,0,0.6-0.1,0.6-0.4c0-0.2-0.3-0.3-0.6-0.4
		c-0.5-0.1-1-0.2-1-0.8c0-0.5,0.5-0.7,1-0.8c0.4,0,0.8,0.1,1,0.5L142.9,102.7z"/>
</g>
</svg>
