<?xml version="1.0" encoding="utf-8"?>
<!-- Generator: Adobe Illustrator 27.0.0, SVG Export Plug-In . SVG Version: 6.00 Build 0)  -->
<svg version="1.1" id="Layer_1" xmlns="http://www.w3.org/2000/svg" xmlns:xlink="http://www.w3.org/1999/xlink" x="0px" y="0px"
	 viewBox="0 0 165 165" style="enable-background:new 0 0 165 165;" xml:space="preserve">
<style type="text/css">
	.st0{fill:#FFFFFF;stroke:#4E4CFF;stroke-width:0.7857;}
	.st1{fill:none;stroke:#4E4CFF;stroke-width:0.7857;}
	.st2{fill:none;}
	.st3{font-family:'ArialMT';}
	.st4{font-size:12px;}
	.st5{fill:#FFFFFF;}
	.st6{fill:url(#SVGID_1_);}
	.st7{fill:url(#SVGID_00000111900779577822153220000012664194753906320018_);}
	.st8{fill:url(#SVGID_00000052099802512857224030000006164226558075160234_);}
	.st9{fill:url(#SVGID_00000154422165251397292910000005732031846006496184_);}
</style>
<circle class="st0" cx="82.5" cy="82.5" r="82.1"/>
<circle class="st1" cx="82.5" cy="82.5" r="50.7"/>
<path id="SVGID_x5F_1_x5F_" class="st2" d="M139.7,82.5c0,31.1-25.6,56.3-57.2,56.3s-57.2-25.2-57.2-56.3s25.6-56.3,57.2-56.3
	S139.7,51.4,139.7,82.5z"/>
<text class="st3 st4"> </text>
<g>
	<path d="M75.5,21.5c0.2,1-0.3,2.2-1.7,2.5c-0.5,0.1-1.1,0.2-1.6,0.3l-0.7-4.1c0.5-0.1,1.1-0.2,1.6-0.3
		C74.5,19.6,75.3,20.5,75.5,21.5z M72.8,23.4l0.9-0.1c0.9-0.2,1.2-0.9,1.1-1.6c-0.1-0.6-0.6-1.2-1.5-1.1l-0.9,0.1L72.8,23.4z"/>
	<path d="M80.5,23.2L80.3,19l0.8,0l0.2,4.2L80.5,23.2z"/>
	<path d="M89.4,20.1c-0.3-0.3-0.7-0.5-1-0.5c-0.9-0.1-1.5,0.6-1.5,1.5c0,0.7,0.3,1.4,1.4,1.5c0.3,0,0.6,0,1-0.3l0-0.7l-1.1-0.1
		l0-0.7l1.8,0.1l-0.1,1.8c-0.4,0.4-1,0.7-1.7,0.6c-1.6-0.1-2.2-1.2-2.1-2.3c0.1-1.2,0.9-2.2,2.4-2.1c0.6,0,1.1,0.3,1.5,0.7
		L89.4,20.1z"/>
	<path d="M94.5,24l0.8-4.1l0.8,0.1l-0.8,4.1L94.5,24z"/>
	<path d="M102.2,22.2l-1.3-0.4l0.2-0.7c1.2,0.4,2.1,0.7,3.3,1l-0.2,0.7l-1.3-0.4l-1,3.3l-0.8-0.2L102.2,22.2z"/>
	<path d="M110.5,28.4l-2-0.9l-0.7,0.6l-0.8-0.4l3.5-3l0.8,0.4l-0.1,4.6l-0.8-0.4L110.5,28.4z M110.6,25.6l-1.5,1.3l1.4,0.7
		L110.6,25.6z"/>
	<path d="M118.1,28.8l-1.9,2.9l1.8,1.2l-0.4,0.6l-2.5-1.6l2.3-3.5L118.1,28.8z"/>
	<path d="M124.7,33.6l-2.2,2.6l1.6,1.4l-0.5,0.6l-2.2-1.9l2.7-3.2L124.7,33.6z"/>
	<path d="M129.4,40.5l2-0.3l0.6,0.7l0,0l-2.9,0.4l-1.3,1.2l-0.5-0.6l1.3-1.2l0.7-2.8l0,0l0.6,0.7L129.4,40.5z"/>
	<path d="M136.2,54.3l-1.5-2.7c1.2-0.7,2.4-1.4,3.7-2.1l1.5,2.7l-0.7,0.4l-1.2-2.1l-0.8,0.5l1.1,2l-0.6,0.4l-1.1-2l-0.8,0.5l1.2,2.1
		L136.2,54.3z"/>
	<path d="M142.4,60.8l-2.2-0.6l-0.1-0.1l1.2-1.9l-2.9,1.1l-0.3-0.7l3.9-1.5l0.3,0.9l-1.2,1.9l2.2,0.6l0.3,0.8l-3.9,1.5l-0.3-0.7
		L142.4,60.8z"/>
	<path d="M142.9,69l-0.3-1.2l-1.2,0.3l-0.2-0.8l4.1-0.9c0.1,0.6,0.3,1.3,0.4,1.9C146.2,70.3,143.3,71,142.9,69z M143.3,67.6l0.3,1.2
		c0.2,1,1.7,0.7,1.5-0.3l-0.3-1.2L143.3,67.6z"/>
	<path d="M145.1,79.2c-1.1,0.1-2.2-0.5-2.3-2c-0.1-1.5,0.9-2.2,2-2.3c1.1-0.1,2.3,0.5,2.4,2C147.2,78.3,146.2,79.1,145.1,79.2z
		 M144.8,75.7c-0.7,0.1-1.4,0.5-1.3,1.5c0.1,1,0.8,1.3,1.5,1.3c0.7,0,1.5-0.5,1.4-1.5C146.3,76,145.5,75.6,144.8,75.7z"/>
	<path d="M142.7,88.3l0.1-0.7l1.4-0.4l1.4-0.3l-1.3-0.5l-1.3-0.6l0.1-0.7l4.3-1.2l-0.1,0.9l-3.1,0.7l2.9,1.3l0,0.5l-3.1,0.8l2.9,1.2
		l-0.1,0.9L142.7,88.3z"/>
	<path d="M141,97.3l0.7-3.1c1.4,0.3,2.7,0.7,4.1,1l-0.7,3.1l-0.7-0.2l0.6-2.3l-0.9-0.2l-0.5,2.2l-0.7-0.2l0.5-2.2l-0.9-0.2l-0.6,2.3
		L141,97.3z"/>
	<path d="M138.2,105.3l0.3-0.9l1.8-0.6l0.3-0.7l-1.3-0.5l0.3-0.7l3.9,1.5c-0.2,0.6-0.5,1.2-0.7,1.9c-0.4,0.9-1.2,1.2-1.9,0.9
		c-0.5-0.2-1-0.7-0.8-1.5L138.2,105.3L138.2,105.3z M142.5,103.8l-1.3-0.5l-0.4,1.1c-0.2,0.5,0,0.8,0.4,0.9c0.3,0.1,0.7,0,0.9-0.4
		L142.5,103.8z"/>
	<path d="M136.3,109.2l3.7,2l-0.4,0.7l-3.7-2L136.3,109.2z"/>
	<path d="M135.4,118.8l-0.5,0.6l-3.4-2.4l0.3-0.4l0,0l3.6-0.2l-2.3-1.6l0.5-0.6l3.4,2.4l-0.4,0.5l-3.3,0.2L135.4,118.8z"/>
	<path d="M128.6,125.2c0.4,0,0.8-0.2,1-0.5c0.6-0.7,0.5-1.5-0.1-2.1c-0.5-0.5-1.3-0.7-2,0.1c-0.2,0.2-0.4,0.5-0.4,0.9l0.5,0.5
		l0.7-0.8l0.5,0.5l-1.2,1.3l-1.3-1.2c-0.1-0.6,0.1-1.2,0.6-1.7c1.1-1.2,2.3-0.9,3.1-0.2c0.9,0.8,1.2,2.1,0.2,3.2
		c-0.4,0.4-0.9,0.7-1.5,0.7L128.6,125.2z"/>
	<path d="M117.1,134.3c-0.2-0.3-0.2-0.6,0-1c-0.5,0.1-0.9-0.2-1.1-0.4c-0.5-0.8-0.1-1.4,0.6-1.9c0.6-0.4,1.1-0.7,1.7-1.1l2.3,3.5
		c-0.5,0.4-1.1,0.7-1.7,1.1C118.3,135,117.6,135,117.1,134.3z M118.1,131l-1,0.7c-0.3,0.2-0.6,0.5-0.4,0.9c0.2,0.3,0.7,0.2,1,0
		l1-0.7L118.1,131z M119.1,132.4l-1,0.7c-0.4,0.3-0.4,0.5-0.3,0.7c0.1,0.2,0.4,0.3,0.8,0.1l1-0.7L119.1,132.4z"/>
	<path d="M108,135.8l0.8-0.4l1.7,0.7l0.7-0.3l-0.6-1.3l0.7-0.3l1.8,3.8c-0.6,0.3-1.2,0.6-1.8,0.9c-0.9,0.4-1.6,0.1-2-0.6
		c-0.2-0.5-0.3-1.2,0.4-1.6L108,135.8L108,135.8z M112.1,137.7l-0.6-1.2l-1.1,0.5c-0.5,0.2-0.5,0.6-0.4,0.9c0.1,0.3,0.5,0.5,0.9,0.3
		L112.1,137.7z"/>
	<path d="M101.3,139.1l2.1-0.7l0.1-0.9l0.8-0.3l-0.5,4.6l-0.8,0.3l-3.1-3.4l0.8-0.3L101.3,139.1z M103.1,141.2l0.2-1.9l-1.5,0.5
		L103.1,141.2z"/>
	<path d="M93.6,144.3l-0.8,0.1l-0.7-4.1l0.5-0.1l0,0l2.6,2.4l-0.5-2.8l0.8-0.1l0.7,4.1l-0.6,0.1l-2.5-2.2L93.6,144.3z"/>
	<path d="M83.7,143c0-1.1,0.6-2.2,2.1-2.2c0.5,0,1.1,0,1.7,0l0.1,4.2c-0.5,0-1.1,0-1.7,0C84.4,145,83.7,144,83.7,143z M86.6,141.5
		l-0.9,0c-1,0-1.3,0.7-1.3,1.4c0,0.7,0.4,1.3,1.3,1.3l0.9,0L86.6,141.5z"/>
	<path d="M76.1,143.5c0.1,0.3,0.5,0.5,0.9,0.6c0.6,0.1,0.9-0.1,0.9-0.5c0-0.4-0.4-0.5-0.9-0.6c-0.9-0.2-1.6-0.5-1.5-1.5
		c0.1-0.9,1-1.2,1.9-1.1c0.9,0.1,1.5,0.4,1.7,1.2l-0.7,0.3c-0.1-0.5-0.6-0.7-1.1-0.8c-0.5-0.1-1,0.1-1,0.5c0,0.4,0.3,0.6,0.9,0.7
		c0.8,0.2,1.6,0.5,1.5,1.5c-0.1,0.9-1,1.1-1.8,1c-0.6-0.1-1.3-0.3-1.5-1L76.1,143.5z"/>
</g>
<g>
	<g>
		<g>
			<path class="st5" d="M88.4,94.5H63.9v-7.4h35.4C97.6,91.5,93.3,94.5,88.4,94.5z"/>
			<path class="st5" d="M116,82.6c0,5.7-1.7,10.9-4.6,15.3c-2,2.9-4.5,5.5-7.4,7.5c-4.4,3-9.8,4.8-15.5,4.8H63.9v-7.4h24.5
				c6.2,0,11.8-2.8,15.5-7.3c2.9-3.5,4.7-8,4.7-12.9v0c0-4.9-1.8-9.4-4.7-12.9c-3.4-4.1-8.4-6.8-14-7.2v-7.4c5.2,0.3,10,2,14,4.7
				c2.9,2,5.4,4.5,7.4,7.5C114.2,71.7,116,77,116,82.6z"/>
			<path class="st5" d="M81.2,54.8v7.4H49c1.7-4.3,6-7.4,10.9-7.4H81.2z"/>
			<path class="st5" d="M96.7,74.4c-2.1-2.1-5.1-3.4-8.3-3.4H49.1c0.6,1.5,1.5,2.8,2.6,3.9c2.1,2.1,5.1,3.4,8.3,3.4h39.3
				C98.7,76.9,97.8,75.5,96.7,74.4z"/>
		</g>
	</g>
	<g>
		<g>
			
				<linearGradient id="SVGID_1_" gradientUnits="userSpaceOnUse" x1="56.617" y1="76.8946" x2="123.5264" y2="76.8946" gradientTransform="matrix(1 0 0 1 -7.5717 5.6054)">
				<stop  offset="0" style="stop-color:#4E4CFF"/>
				<stop  offset="0.3077" style="stop-color:#3332A8"/>
				<stop  offset="0.6467" style="stop-color:#18174E"/>
				<stop  offset="0.8854" style="stop-color:#070716"/>
				<stop  offset="1" style="stop-color:#000000"/>
			</linearGradient>
			<path class="st6" d="M88.4,94.5H63.9v-7.4h35.4C97.6,91.5,93.3,94.5,88.4,94.5z"/>
			
				<linearGradient id="SVGID_00000060030203082154671570000003413138239268345249_" gradientUnits="userSpaceOnUse" x1="56.617" y1="76.8946" x2="123.5264" y2="76.8946" gradientTransform="matrix(1 0 0 1 -7.5717 5.6054)">
				<stop  offset="0" style="stop-color:#4E4CFF"/>
				<stop  offset="0.3077" style="stop-color:#3332A8"/>
				<stop  offset="0.6467" style="stop-color:#18174E"/>
				<stop  offset="0.8854" style="stop-color:#070716"/>
				<stop  offset="1" style="stop-color:#000000"/>
			</linearGradient>
			<path style="fill:url(#SVGID_00000060030203082154671570000003413138239268345249_);" d="M116,82.6c0,5.7-1.7,10.9-4.6,15.3
				c-2,2.9-4.5,5.5-7.4,7.5c-4.4,3-9.8,4.8-15.5,4.8H63.9v-7.4h24.5c6.2,0,11.8-2.8,15.5-7.3c2.9-3.5,4.7-8,4.7-12.9v0
				c0-4.9-1.8-9.4-4.7-12.9c-3.4-4.1-8.4-6.8-14-7.2v-7.4c5.2,0.3,10,2,14,4.7c2.9,2,5.4,4.5,7.4,7.5C114.2,71.7,116,77,116,82.6z"
				/>
			
				<linearGradient id="SVGID_00000098935478834934814250000001885369985386301592_" gradientUnits="userSpaceOnUse" x1="56.617" y1="76.8946" x2="123.5264" y2="76.8946" gradientTransform="matrix(1 0 0 1 -7.5717 5.6054)">
				<stop  offset="0" style="stop-color:#4E4CFF"/>
				<stop  offset="0.3077" style="stop-color:#3332A8"/>
				<stop  offset="0.6467" style="stop-color:#18174E"/>
				<stop  offset="0.8854" style="stop-color:#070716"/>
				<stop  offset="1" style="stop-color:#000000"/>
			</linearGradient>
			<path style="fill:url(#SVGID_00000098935478834934814250000001885369985386301592_);" d="M81.2,54.8v7.4H49
				c1.7-4.3,6-7.4,10.9-7.4H81.2z"/>
			
				<linearGradient id="SVGID_00000173878298508291122390000007716606631477140621_" gradientUnits="userSpaceOnUse" x1="56.617" y1="76.8946" x2="123.5264" y2="76.8946" gradientTransform="matrix(1 0 0 1 -7.5717 5.6054)">
				<stop  offset="0" style="stop-color:#4E4CFF"/>
				<stop  offset="0.3077" style="stop-color:#3332A8"/>
				<stop  offset="0.6467" style="stop-color:#18174E"/>
				<stop  offset="0.8854" style="stop-color:#070716"/>
				<stop  offset="1" style="stop-color:#000000"/>
			</linearGradient>
			<path style="fill:url(#SVGID_00000173878298508291122390000007716606631477140621_);" d="M96.7,74.4c-2.1-2.1-5.1-3.4-8.3-3.4
				H49.1c0.6,1.5,1.5,2.8,2.6,3.9c2.1,2.1,5.1,3.4,8.3,3.4h39.3C98.7,76.9,97.8,75.5,96.7,74.4z"/>
		</g>
	</g>
</g>
</svg>
